<?xml version="1.0" encoding="utf-8"?>
<!-- Generator: Adobe Illustrator 28.3.0, SVG Export Plug-In . SVG Version: 6.00 Build 0)  -->
<svg version="1.1" id="Capa_1" xmlns="http://www.w3.org/2000/svg" xmlns:xlink="http://www.w3.org/1999/xlink" x="0px" y="0px"
	 viewBox="0 0 50 22" style="enable-background:new 0 0 50 22;" xml:space="preserve">
<path d="M26.2,9.8L26.2,9.8L23.4,11L6.8,4.1L2.4,2.3V0l4.3,1.8L26.2,9.8L26.2,9.8z M45.7,1.8l-19.4,8l0,0l0,0L29,11l16.7-6.9L50,2.3
	V0L45.7,1.8z M6.8,17.9l-4.3,1.8V22l4.3-1.8l19.4-8l0,0l0,0L23.4,11L6.8,17.9L6.8,17.9z M4.3,4.1L0,2.3v17.4l4.3-1.8L21,11L4.3,4.1z
	 M45.7,17.9L29,11l-2.7,1.1l0,0l0,0l19.4,8L50,22v-2.3L45.7,17.9L45.7,17.9z M48.1,4.1L31.4,11l16.7,6.9l1.9-0.5V0L48.1,4.1
	L48.1,4.1z"/>
</svg>
