<svg width="161" height="104" viewBox="0 0 161 104" fill="none" xmlns="http://www.w3.org/2000/svg">
<path d="M26.199 9.84943L26.1541 9.86965L23.4202 11.0025L6.75268 4.10161L2.40601 2.30115V0L6.75268 1.79793L26.1541 9.8292L26.199 9.84943ZM45.6533 1.79793L26.2519 9.8292L26.207 9.84943L26.2519 9.86965L28.9858 11.0025L45.6533 4.10414L50 2.30368V0L45.6533 1.79793ZM6.75268 17.8984L2.40601 19.6989V22L6.75268 20.1995L26.1541 12.1683L26.199 12.148L26.1541 12.1303L23.4202 11L6.75268 17.8959V17.8984ZM4.34668 4.10161L0 2.30115V19.6989L4.34668 17.8984L21.0142 11L4.34668 4.10161ZM45.6533 17.8959L28.9858 11L26.2519 12.1303L26.207 12.148L26.2519 12.1657L45.6533 20.1945L50 21.9949V19.6938L45.6533 17.8933V17.8959ZM48.0593 4.09908L31.3918 10.9975L48.0593 17.8933L50 17.3952V0L48.0593 4.10161V4.09908Z" fill="white"/>
<path d="M160.93 97.3547C159.357 97.1459 158.099 96.8931 157.091 96.143C153.331 93.3512 151.583 82.9425 153.038 76.0401C153.805 72.402 154.893 69.0964 156.167 65.9886C157.247 63.3562 159.902 60.3584 157.946 57.149C156.356 54.5413 154.153 57.5804 153.397 59.0724C151.599 62.6143 149.407 65.821 147.354 69.1239C146.335 70.789 145.315 72.4514 144.296 74.1139C144.271 74.1606 144.249 74.2073 144.224 74.2567H144.153C143.676 70.539 146.589 65.505 148.064 63.1364C148.513 62.4962 148.963 61.8532 149.415 61.213C150.316 58.979 148.538 56.7505 147.425 56.0801C145.052 56.2422 144.148 59.2373 143.158 60.8557C140.267 65.5352 137.376 70.2175 134.485 74.8997V75.0426C134.438 75.0179 134.389 74.9959 134.342 74.9712C133.616 71.7013 136.866 66.0683 138.182 63.9223C138.656 63.2326 139.13 62.5429 139.604 61.8559C140.256 59.9682 138.952 57.0528 137.543 56.8659C136.066 56.418 135.05 58.7207 134.485 59.5753C132.907 61.9604 131.703 64.5817 130.218 67.1317C129.602 68.3188 128.985 69.5085 128.368 70.6956C128.322 70.7203 128.272 70.7423 128.226 70.767C128.719 69.0249 130.953 62.3753 128.938 60.8585C127.752 60.5178 126.741 60.853 126.45 61.8559C129.273 65.0516 124.751 74.5205 122.967 76.6144C122.224 77.4854 120.892 79.0654 119.27 78.3262C118.517 76.3396 119.311 73.927 119.84 72.1959C121.076 68.1347 122.507 64.7631 124.817 61.8587C125.45 61.0646 126.79 59.5808 128.371 59.861C129.04 59.9792 129.47 60.4381 130.007 60.7156C130.078 60.6689 130.15 60.6194 130.221 60.5727C130.141 59.6522 129.651 59.2153 129.155 58.718C126.834 56.4016 123.699 57.3523 121.547 59.0752C119.424 60.7733 117.483 63.0677 115.787 65.2055C113.129 68.5578 110.254 71.8057 107.681 75.2569C106.694 76.5814 103.789 80.7718 101.638 80.5327C99.3747 80.2827 100.348 74.4628 100.786 72.6905C101.849 68.3929 103.672 65.0132 105.976 61.9961C106.837 60.8695 107.881 59.2895 109.531 59.001C109.602 59.0477 109.673 59.0971 109.744 59.1439C111.537 60.4298 108.169 66.4338 107.969 67.4147V67.4862C108.555 67.7692 109.47 67.5191 110.029 67.3433C111.178 66.9806 112.159 66.4887 112.803 65.6314C114.598 63.2436 114.305 57.781 111.594 56.6489C107.552 54.959 104.184 58.8251 102.28 60.3556C98.336 63.5266 95.0201 67.706 92.1838 71.9761C90.7971 74.0671 89.7284 77.1969 87.8484 78.8208H87.5634C86.2672 76.9523 87.7388 73.0752 88.3445 71.3358C89.6982 67.4505 91.0767 63.7025 93.0361 60.3584C94.1021 58.4349 95.1681 56.5087 96.2341 54.5825C98.3443 54.1786 100.454 53.7747 102.562 53.3707C108.424 51.9941 114.357 51.2522 120.55 50.0212C123.616 49.4112 126.872 49.5733 130.292 49.0237C131.904 48.999 133.515 48.977 135.126 48.9523C137.456 49.3287 139.716 49.3315 141.739 49.9497C143.211 50.4004 144.507 51.4143 146.217 51.4473C146.896 50.0019 145.115 48.4302 144.509 47.6691C142.613 45.284 136.965 42.3136 131.925 43.1792C130.41 43.2973 128.892 43.4155 127.376 43.5364C124.271 44.0832 121.167 44.63 118.062 45.1768C113.866 46.2704 109.67 47.3641 105.478 48.4549C103.178 49.1666 100.879 49.881 98.5799 50.5927C100.167 47.9081 101.756 45.2235 103.343 42.5362C104.031 41.514 104.718 40.4918 105.404 39.4696C106.133 37.4912 104.453 35.0484 103.343 34.5511C101.033 33.5152 99.6569 36.3234 98.8622 37.6176C96.8754 40.8518 95.138 44.2371 93.1731 47.5976C92.3208 49.2381 91.4658 50.8785 90.6135 52.5162C89.8928 52.8596 88.9254 52.714 87.9827 52.8734C83.8666 53.5713 79.682 52.2854 77.3882 50.5927C76.4455 49.8975 75.8015 48.3835 74.6862 47.9548H74.6149C74.3381 49.3425 75.6864 50.6504 76.3222 51.4473C78.7886 54.544 83.3103 55.6102 88.9775 55.5113C87.5086 57.7205 86.0397 59.9325 84.5709 62.1417C82.1292 65.9914 79.6874 69.841 77.2485 73.6907C76.2318 75.3614 74.2751 80.2167 72.6994 80.9614C72.5569 80.8679 72.4144 80.7718 72.2719 80.6756C71.1894 76.1555 75.8673 68.3875 77.391 65.4198C77.9062 64.4141 79.6381 61.1855 78.1747 60.1441C76.1523 58.707 71.0661 61.8175 68.4325 61.7845C69.5534 59.7676 73.0419 55.5525 72.1294 52.3733C72.0115 52.3018 71.8909 52.2304 71.7731 52.159C70.7591 51.7605 69.6438 52.8432 69.071 53.2279C67.0048 54.6155 64.8042 56.429 63.8094 58.8608C63.1764 60.4106 63.36 62.705 64.8042 63.2106C63.9026 64.7549 63.0037 66.2991 62.1021 67.8434C59.4823 72.1492 56.8789 76.3258 53.9274 80.2497C53.1437 81.2884 50.7924 84.7396 49.1646 84.3851C48.1561 83.8933 48.5425 81.8791 48.8796 80.8927C50.0634 78.3262 51.2501 75.7598 52.4339 73.1934C57.0981 63.991 62.3159 55.3904 65.0892 44.3937C66.0648 40.522 66.6595 33.7075 63.6669 31.7044C62.9325 31.2125 62.0528 31.1658 60.9649 30.9927C59.3699 31.6274 57.6161 31.2317 56.698 32.4902C56.5144 33.5069 56.9748 34.3587 57.1255 35.271C57.3694 36.7493 56.7665 38.3513 56.4158 39.4779C54.9277 44.2563 52.8094 48.8479 50.4444 52.8816C49.2824 54.8051 48.1205 56.7313 46.9613 58.6575C45.1471 59.5011 42.4067 59.1411 40.2774 59.5121C35.2213 60.3969 27.1617 62.128 29.8967 68.7804C30.2584 69.6597 30.5598 70.2532 31.1764 70.8467H31.4614C31.4861 70.7753 31.508 70.7038 31.5327 70.6324C29.1129 65.832 39.1045 63.2243 43.7605 63.2903C41.5078 66.8075 38.6249 69.8328 36.0818 73.056C31.4286 78.9582 25.9806 84.7533 19.0172 88.3117C14.4187 90.6611 7.38132 91.6943 4.51209 86.9571C2.03749 82.8711 4.52853 76.7655 6.29063 73.8391C11.3933 65.3621 21.4424 56.6434 30.8202 52.5244C33.5688 51.3181 43.5467 47.7103 43.4042 54.022C43.4755 53.9972 43.5467 53.9753 43.618 53.9505C43.9085 52.7085 43.6947 51.0681 43.4042 50.0294C41.8942 44.652 36.5285 44.2948 30.9627 46.1083C19.3131 49.903 7.68276 58.5641 2.45129 68.8491C-0.261731 74.1825 -1.2154 82.1814 2.16629 87.5973C6.05221 93.8211 14.8928 95.533 21.933 91.0898C29.2362 86.479 36.8135 78.6642 42.0532 71.9129C43.7605 69.7036 45.465 67.4917 47.1723 65.2824C47.8108 64.3564 48.4521 63.4277 49.0933 62.5017C50.0169 62.2873 50.9404 62.073 51.8666 61.8614C50.2306 65.4968 48.5946 69.1348 46.9613 72.7674C46.0816 74.7678 44.9142 76.6885 44.3305 78.9692C43.3193 82.9178 44.8238 86.7922 47.6711 87.8089C50.965 88.9822 53.2314 85.1875 54.4975 83.4591C57.5421 79.3044 60.2496 74.8558 63.0284 70.4126C64.4753 68.1072 65.9196 65.8018 67.3665 63.4964C69.0464 63.4332 70.4632 63.1199 71.7758 62.7819C69.7561 66.8322 68.7586 71.5392 67.9365 76.7545C67.3775 80.2992 68.3722 84.6956 70.9948 85.3084C73.0008 85.7783 74.4203 82.0358 75.1192 80.8872C77.528 76.9386 79.9642 72.9351 82.5841 69.1953C83.3815 68.0577 84.0228 66.5849 85.0724 65.7029C83.4775 69.1788 80.6795 81.8324 85.8534 83.2393C87.832 83.7779 88.5966 81.2664 89.2652 80.1728C91.0657 77.37 92.8662 74.5645 94.6694 71.7617C95.6422 70.4538 96.6123 69.1486 97.5852 67.8406C97.6318 67.8159 97.6811 67.7939 97.7277 67.7692C97.3385 69.547 96.7247 71.2836 96.3766 73.4022C95.708 77.4854 98.4374 83.2338 102.562 82.3847C104.694 81.9451 106.16 80.1398 107.325 78.678C109.566 75.8642 113.192 70.7533 116.069 68.8408C115.116 72.7427 114.644 77.9058 117.563 80.1041C118.221 80.6014 119.196 81.2774 120.55 81.0301C124.192 80.3624 126.957 74.7349 128.727 71.9046C129.415 70.7863 130.1 69.6707 130.788 68.5551C130.859 68.5084 130.931 68.4589 131.002 68.4122C129.706 71.7535 129.415 79.4226 133.348 79.8897C134.647 79.3539 135.074 77.675 135.694 76.4687C136.713 74.592 137.73 72.7125 138.749 70.8357C139.366 69.8383 139.982 68.8408 140.596 67.8406C140.667 67.7939 140.739 67.7445 140.81 67.6978C139.955 71.1655 138.927 78.7082 143.227 79.1753C144.29 78.5378 144.383 77.6778 145.006 76.6089C146.354 74.2842 147.976 70.0828 149.738 68.2995C149.749 68.2418 149.757 68.1814 149.768 68.1237V68.2665C149.768 68.2665 149.749 68.2885 149.738 68.2995C149.582 69.1926 149.426 70.0828 149.272 70.9759C149.037 73.0917 148.798 75.2075 148.563 77.3205C147.094 86.8856 152.147 98.8303 161.004 97.6378C160.979 97.5443 160.958 97.4482 160.933 97.352L160.93 97.3547ZM52.2202 57.9293C53.9028 55.2695 55.5854 52.6069 57.268 49.9442C56.1061 52.5327 54.9469 55.1266 53.7849 57.715C53.3821 57.8112 52.9793 57.9046 52.5764 58.0008H52.2202V57.9293ZM138.39 88.5123C132.742 86.2042 124.414 86.1327 116.563 86.2316C114.833 86.2784 113.101 86.3251 111.372 86.3745C106.538 86.6823 101.701 86.9928 96.8672 87.3005C92.8141 87.7045 88.761 88.1084 84.7106 88.5123C74.2751 90.3176 63.6642 90.8672 53.6397 92.8593C50.2498 93.4529 46.8599 94.0464 43.4727 94.6427C41.8888 94.9916 39.7677 94.9971 38.6386 95.8544C36.6545 97.3602 39.5375 102.471 40.7707 103.054C40.9378 103.078 41.1023 103.1 41.2694 103.125C44.1989 100.234 52.9656 98.4154 57.6215 96.9948C65.4783 94.5959 73.8723 93.0847 82.5786 91.3645C86.4371 90.6006 90.3039 90.6666 94.3816 90.0099C97.4728 89.5125 100.849 89.9494 104.195 89.4411H112.512C114.409 89.5125 116.305 89.584 118.199 89.6554C122.904 90.3808 127.609 90.5265 131.849 91.5102C133.49 91.8894 138.283 92.5653 139.031 93.5765C139.267 94.2909 139.505 95.0026 139.741 95.7143C139.859 95.739 139.977 95.761 140.097 95.7857C143.737 92.6313 142.421 90.161 138.39 88.5151V88.5123Z" fill="white"/>
<path d="M14.4818 26.1429H8.46387V36.9692H14.6079V35.9223H9.65047V32.0314H14.3366V30.9845H9.65047V27.1898H14.4791V26.1429H14.4818ZM26.0793 26.1429H24.6242L20.8725 30.5394L17.1209 26.1429H15.6493L20.1463 31.3967L15.3478 36.9692H16.8194L20.8725 32.254L24.8955 36.9692H26.3671L21.6179 31.3967L26.0821 26.1429H26.0793ZM27.4578 26.1429V36.9692H28.6444V32.0781H30.5435C33.251 32.0781 34.106 30.5861 34.106 29.1078C34.106 27.6294 33.251 26.1401 30.5435 26.1401H27.4578V26.1429ZM30.4174 27.1898C32.5851 27.1898 32.84 28.3329 32.84 29.1105C32.84 29.8881 32.5851 31.0312 30.4174 31.0312H28.6444V27.1898H30.4174ZM40.6337 37.1121C43.8784 37.1121 46.4763 34.7957 46.4763 31.556C46.4763 28.6022 44.2127 26 40.6968 26C37.1808 26 34.9336 28.6983 34.9336 31.556C34.9336 34.7462 37.4658 37.1121 40.6337 37.1121ZM40.6173 35.9855C38.3044 35.9855 36.1997 34.2077 36.1997 31.5725C36.1997 29.2397 37.9262 27.1266 40.6968 27.1266C43.4673 27.1266 45.2075 29.3798 45.2075 31.5258C45.2075 34.1307 43.196 35.9855 40.6145 35.9855H40.6173Z" fill="white"/>
</svg>
