<svg width="50" height="22" viewBox="0 0 50 22" fill="none" xmlns="http://www.w3.org/2000/svg">
<path d="M26.199 9.84943L26.1541 9.86965L23.4202 11.0025L6.75268 4.10161L2.40601 2.30115V0L6.75268 1.79793L26.1541 9.8292L26.199 9.84943ZM45.6533 1.79793L26.2519 9.8292L26.207 9.84943L26.2519 9.86965L28.9858 11.0025L45.6533 4.10414L50 2.30368V0L45.6533 1.79793ZM6.75268 17.8984L2.40601 19.6989V22L6.75268 20.1995L26.1541 12.1683L26.199 12.148L26.1541 12.1303L23.4202 11L6.75268 17.8959V17.8984ZM4.34668 4.10161L0 2.30115V19.6989L4.34668 17.8984L21.0142 11L4.34668 4.10161ZM45.6533 17.8959L28.9858 11L26.2519 12.1303L26.207 12.148L26.2519 12.1657L45.6533 20.1945L50 21.9949V19.6938L45.6533 17.8933V17.8959ZM48.0593 4.09908L31.3918 10.9975L48.0593 17.8933L50 17.3952V0L48.0593 4.10161V4.09908Z" fill="white"/>
</svg>
